# xmcd
#
# Track frame offsets:
#	150
#	16292
#	41488
#	58543
#	72974
#	90233
#	109227
#	124366
#	140757
#	151769
#	167590
#	183618
#	201683
#	219293
#	236554
#	252893
#	266832
#	278679
#	297868
#	311273
#
# Disc length: 4350 seconds
#
# Revision: 1206551136
# Processed by: cddbd v1.5.2PL0 Copyright (c) Steve Scherf et al.
# Submitted via: EZCDAudioConverter 9.1.1.1
#
DISCID=2510fc14
DTITLE=100 Hits - 100 Hits - Country - CD 4
DYEAR=2007
DGENRE=Country
TTITLE0=Randy Travis - Forever And Ever, Amen
TTITLE1=Sara Evans - Born To Fly
TTITLE2=Brad Paisley - We Danced
TTITLE3=Pam Tillis - Don't Tell Me What To Do
TTITLE4=Mandy Barnett - Rainy Days
TTITLE5=K.T. Oslin - 80's Ladies
TTITLE6=K.D. Lang - Trail Of Broken Hearts
TTITLE7=Rodney Crowell - I Ain't Living Long Like This
TTITLE8=The Dillards - Somebody Touched Me
TTITLE9=Tracy Lawrence - How A Cowgirl Says Goodbye
TTITLE10=Beth Nielsen Chapman - Happy Girl
TTITLE11=Leslie Satcher - Love Letters From Old Mexico
TTITLE12=Kenny Chesney - I Lost It
TTITLE13=Blake Shelton - Austin
TTITLE14=Tracy Lawrence - Sticks And Stones
TTITLE15=Clint Black - A Better Man
TTITLE16=Gene Parsons - Drunkard's Dream
TTITLE17=John Prine - Sam Stone
TTITLE18=Gram Parsons - That's All It Took
TTITLE19=Dwight Yoakam - Bury Me
EXTD=
EXTT0=
EXTT1=
EXTT2=
EXTT3=
EXTT4=
EXTT5=
EXTT6=
EXTT7=
EXTT8=
EXTT9=
EXTT10=
EXTT11=
EXTT12=
EXTT13=
EXTT14=
EXTT15=
EXTT16=
EXTT17=
EXTT18=
EXTT19=
PLAYORDER=
